<?xml version="1.0" encoding="utf-8"?>
<!-- Generator: Adobe Illustrator 26.2.1, SVG Export Plug-In . SVG Version: 6.00 Build 0)  -->
<svg version="1.1" id="Layer_1" xmlns="http://www.w3.org/2000/svg" xmlns:xlink="http://www.w3.org/1999/xlink" x="0px" y="0px"
	 viewBox="0 0 756.4 693.9" style="enable-background:new 0 0 756.4 693.9;" xml:space="preserve">
<style type="text/css">
	.st0{fill:#FDF87A;}
</style>
<g>
	<g>
		<g>
			<path class="st0" d="M582.3,503.6C582.3,503.6,582.3,503.6,582.3,503.6C582.3,503.6,582.3,503.6,582.3,503.6z"/>
		</g>
		<g>
			<g>
				<path class="st0" d="M408.4,299.3c-8.1,2.5-16.1,5-24.1,7.6c-2.6,0.8-4.5,3-5.1,5.6c-2.6,12-6.3,28.9-8.6,39
					c-0.5,2.1-3.4,2.1-3.9,0c-2.4-9.9-4.8-19.7-7.3-29.6c-0.9-3.6-4.6-5.7-8.1-4.6c-7.8,2.5-15.6,4.9-23.4,7.2
					c-2.5,0.8-4.3,3.1-4.3,5.7c0,24.3,0,48.5,0,72.8c-5.7-22.1-11.4-44.2-17.1-66.3c-0.8-3.1-4-5-7.1-4.2
					c-8.7,2.3-17.5,4.4-26.3,6.4c-2.2,0.5-3.9,2.2-4.4,4.4c-4.4,19.2-8.8,38.4-13.2,57.7c-0.3-2.4-1-4.5-1.9-6.3
					c-1.5-2.9-3.2-5.2-5.3-7.1c-2.1-1.9-4.4-3.3-6.7-4.4c-2.4-1.1-4.5-2-6.5-2.7c-3.4-1.2-5.7-2.2-6.9-2.9c-1.2-0.7-1.8-1.8-1.8-3.2
					c0-1.7,0.6-3,1.7-3.8c1.1-0.8,2.4-1.3,3.8-1.5c1.8-0.2,3.8,0,5.8,0.8c0.3,0.1,0.6,0.2,0.9,0.3c2.7,1.1,5.9,0.2,7.4-2.4
					c2.6-4.4,5.3-8.8,7.9-13.2c1.9-3.2,0.5-7.4-3.1-8.7c-1.5-0.6-3.2-1.1-4.9-1.5c-4.4-1-9.5-1.2-15.1-0.5
					c-3.7,0.4-7.5,1.4-11.3,2.8c-3.8,1.4-7.3,3.5-10.4,6.1c-3.1,2.6-5.7,5.9-7.7,9.9c-2,4-3,8.8-3,14.4c0,3.9,0.6,7.3,1.6,10.2
					c1.1,2.9,2.6,5.4,4.4,7.5c1.8,2.1,4,3.9,6.3,5.2c2.4,1.4,4.9,2.6,7.5,3.6c3.1,1.2,5.3,2.3,6.8,3.3c1.5,1,2.2,2.3,2.2,3.9
					c0,1.4-0.5,2.5-1.5,3.3c-1,0.8-2.3,1.3-3.8,1.5c-2.4,0.2-4.8-0.1-7.2-1c-0.7-0.3-1.4-0.6-2.1-0.9c-2.8-1.3-6.1-0.3-7.7,2.2
					c-2.5,4-5,7.9-7.5,11.9c-1.8,2.9-0.9,6.7,2,8.4c0,0,0,0,0.1,0c2,1.2,4.2,2.2,6.7,3.1c2.4,0.9,5.1,1.5,7.9,1.9
					c2.9,0.4,5.9,0.4,9,0.1c4-0.4,8-1.4,11.9-3.2c3.9-1.7,7.4-4.1,10.5-7.1c1.5-1.5,2.9-3.1,4.1-4.9c-0.1,0.4-0.2,0.8-0.3,1.1
					c-0.9,4.1,2.6,7.8,6.7,7c5.4-1,10.8-2.1,16.2-3.2c2.3-0.5,4-2.3,4.5-4.6c0.4-2,0.7-3.8,1.1-5.8c0.4-2.3,2.1-4.1,4.4-4.6
					c2.4-0.6,4.4-1,6.5-1.6c3.2-0.8,6.4,1.2,7.1,4.5c0,0,0,0.1,0,0.1c0.7,3.3,4,5.3,7.2,4.4c6.2-1.7,12.4-3.4,18.6-5.2
					c2.2-0.6,3.7-2.5,4.1-4.6c1.7,1.5,4.1,2.2,6.5,1.5c4-1.2,7.9-2.4,11.9-3.6c3-0.9,5-3.8,5-6.9c-0.3-12.4-0.6-24.8-0.8-37.2
					c0-1.2,1.7-1.4,2-0.3c2.1,9,5.3,22.9,7.7,33.5c0.7,3.3,4.1,5.2,7.3,4.2c2.9-0.9,5.7-1.8,8.6-2.7c2.3-0.7,4-2.6,4.4-4.9
					c2.7-12.9,6.7-31.5,9.2-42.8c0.2-1.1,1.9-0.9,1.9,0.2c-0.3,11.6-0.6,23.2-0.9,34.7c-0.1,4,3.8,6.9,7.6,5.7
					c4.6-1.5,9.3-2.9,13.9-4.3c3.7-1.1,6.2-4.6,6.2-8.4c0-25.7,0-51.5,0-77.2C416.4,301.1,412.4,298.1,408.4,299.3z M287.4,393.2
					C287.3,393.2,287.3,393.2,287.4,393.2c-2.7,0.7-5.1-1.5-4.7-4.2c1.2-7.9,2.3-15.7,3.5-23.6c0.7,0,0.5,0,1.1,0
					c1.1,7.6,2.3,15.2,3.4,22.8C291.1,390.4,289.6,392.6,287.4,393.2z"/>
			</g>
			<g>
				<path class="st0" d="M274,332.5c14.2-3.2,28.3-6.9,42.3-10.8c1.9-0.5,3.2-2.3,3.2-4.2v-15.8c0-2.9-2.8-5-5.6-4.2
					c-4.3,1.2-8.5,2.4-12.8,3.5c-2.8,0.8-5.5-1.4-5.5-4.3v-0.4c0-2,1.4-3.7,3.3-4.3c4.6-1.2,9.1-2.5,13.7-3.7
					c1.9-0.5,3.2-2.3,3.2-4.2c0-4.5,0-9,0-13.5c0-2.9-2.8-5-5.6-4.2c-3,0.8-6,1.7-9,2.5c-2.8,0.7-5.5-1.4-5.5-4.3
					c0-2,1.4-3.7,3.3-4.3c5.3-1.4,10.5-2.8,15.8-4.3c1.9-0.5,3.2-2.3,3.2-4.2c0-5.1,0-10.2,0-15.4c0-2.9-2.8-5-5.6-4.2
					c-13.3,3.7-26.7,7.1-40.1,10.1c-2,0.4-3.5,2.2-3.5,4.3c0,27.2,0,54.5,0,81.7C268.6,331.1,271.2,333.1,274,332.5z"/>
			</g>
			<g>
				<path class="st0" d="M327,251.4c1.6-0.5,3.3-1,4.9-1.5c2.8-0.9,5.7,1.3,5.7,4.2c0,18.4,0,36.8,0,55.3c0,3,2.9,5.1,5.7,4.2
					c6.4-2,12.7-4,19.1-6c1.8-0.6,3.1-2.3,3.1-4.2v-60.7c0-1.9,1.2-3.6,3.1-4.2c3.4-1.1,6.8-2.2,10.1-3.2c1.8-0.6,3.1-2.3,3.1-4.2
					c0-4.8,0-9.6,0-14.3c0-3-2.9-5.1-5.7-4.2c-17.1,5.5-34.2,10.9-51.5,16c-1.9,0.6-3.1,2.3-3.1,4.2c0,4.8,0,9.6,0,14.4
					C321.3,250.1,324.1,252.3,327,251.4z"/>
			</g>
			<g>
				<path class="st0" d="M427.7,258.4c0,7.7,0,15.3,0,23c0,2.9,2.8,5,5.6,4.2c6.4-1.8,12.8-3.6,19.2-5.2c1.9-0.5,3.3-2.2,3.3-4.3
					v-81.7c0-2.9-2.7-5-5.5-4.3c-6.5,1.7-12.9,3.5-19.4,5.3c-1.9,0.5-3.2,2.3-3.2,4.2v24.4c0,2-1.3,3.7-3.2,4.2
					c-1.3,0.4-2.5,0.7-3.7,1.1c-2.8,0.8-5.7-1.3-5.7-4.2c0-6.4,0-12.8,0-19.2c0-3-2.9-5.1-5.7-4.2c-6.5,2-12.9,4-19.3,6.1
					c-1.8,0.6-3.1,2.3-3.1,4.2v81.5c0,3,2.9,5.1,5.7,4.2c6.4-2,12.8-4,19.3-6c1.9-0.6,3.1-2.3,3.1-4.2v-28.2c0-1.9,1.3-3.7,3.1-4.2
					c1.3-0.4,2.5-0.7,3.7-1.1C424.9,253.3,427.7,255.4,427.7,258.4z"/>
			</g>
			<g>
				<path class="st0" d="M475.3,368.1c0.3-0.3,0.7-0.6,1-0.9c0.2-0.3,0.5-0.6,0.7-1c0.9-1.6,1.8-3.2,2.5-4.7l35.8,20.7l52.9-30.9
					l-53.2-86.8L477,327c-0.4-1.8-0.6-2.9-1-5c1.3-1.5,2.5-3.2,3.4-5c2-3.6,3-7.9,3-12.8c0-5.3-1-9.4-2.9-12.2
					c-1.9-2.8-4.4-4.8-7.3-5.8c-2.9-1-6.2-1.4-9.7-1.1c-3.5,0.3-6.8,0.8-9.9,1.6c-10,2.6-19.9,5.4-29.7,8.3
					c-1.6,0.5-2.7,1.9-2.7,3.6c0,28.1,0,56.1,0,84.2c0,2.5,2.4,4.3,4.8,3.6c10.3-3,20.6-5.9,30.9-8.5c3.8-1,7.5-2.3,11-4.1
					c1.3-0.6,2.6-1.4,3.8-2.1l44.3,61.6l51.1-72.5L514.8,392L475.3,368.1z M446.7,314.3c0-1.7,1.1-3.2,2.8-3.6
					c0.6-0.2,1.2-0.3,2-0.5c1.8-0.5,3.2-0.4,4.4,0.3c1.1,0.7,1.7,2,1.7,3.9c0,2.3-0.6,4-1.6,5.3c-1.1,1.3-2.6,2.1-4.4,2.6
					c0,0,0,0-0.1,0c-2.4,0.6-4.7-1.2-4.7-3.6V314.3z M456.6,352.4c-1.3,1.5-2.9,2.5-4.9,3c-0.1,0-0.2,0.1-0.3,0.1
					c-2.4,0.6-4.7-1.2-4.7-3.6v-5.4c0-1.7,1.1-3.2,2.8-3.6c0.7-0.2,1.3-0.4,2.2-0.6c1.8-0.5,3.3-0.3,4.7,0.4
					c1.4,0.7,2.1,2.2,2.1,4.6C458.6,349.2,457.9,350.9,456.6,352.4z"/>
			</g>
		</g>
	</g>
	<g>
		<g>
			<path class="st0" d="M429.1,59.6c-0.2,0-0.3,0-0.5,0c-1.5-0.3-2.5-1.7-2.3-3.2l5.9-33.7c0.3-1.5,1.7-2.5,3.2-2.3
				c1.5,0.3,2.5,1.7,2.3,3.2l-5.9,33.7C431.6,58.6,430.4,59.6,429.1,59.6z"/>
		</g>
		<g>
			<path class="st0" d="M329.2,626.3c-0.2,0-0.3,0-0.5,0c-1.5-0.3-2.5-1.7-2.3-3.2c12.2-69.2,24.4-138.4,36.6-207.6
				c0.3-1.5,1.7-2.5,3.2-2.3c1.5,0.3,2.5,1.7,2.3,3.2c-12.2,69.2-24.4,138.4-36.6,207.6C331.7,625.3,330.5,626.3,329.2,626.3z"/>
		</g>
		<g>
			<path class="st0" d="M405.3,194.7c-0.2,0-0.3,0-0.5,0c-1.5-0.3-2.5-1.7-2.3-3.2l11-62.1c0.3-1.5,1.7-2.5,3.2-2.3
				c1.5,0.3,2.5,1.7,2.3,3.2l-11,62.1C407.8,193.8,406.6,194.7,405.3,194.7z"/>
		</g>
		<g>
			<path class="st0" d="M419,116.6c-0.2,0-0.3,0-0.5,0c-1.5-0.3-2.5-1.7-2.3-3.2l5.4-30.7c0.3-1.5,1.7-2.5,3.2-2.3
				c1.5,0.3,2.5,1.7,2.3,3.2l-5.4,30.7C421.5,115.7,420.4,116.6,419,116.6z"/>
		</g>
		<g>
			<path class="st0" d="M320.9,673.4c-0.2,0-0.3,0-0.5,0c-1.5-0.3-2.5-1.7-2.3-3.2c1.8-10.6,3.7-21.3,5.6-31.5
				c0.3-1.5,1.7-2.5,3.2-2.2c1.5,0.3,2.5,1.7,2.2,3.2c-1.9,10.2-3.7,20.8-5.5,31.5C323.4,672.4,322.2,673.4,320.9,673.4z"/>
		</g>
		<g>
			<path class="st0" d="M461.5,120.2c-0.3,0-0.6-0.1-1-0.2c-1.4-0.5-2.2-2.1-1.7-3.6l9.7-26.6c0.5-1.4,2.1-2.2,3.6-1.7
				c1.4,0.5,2.2,2.1,1.7,3.6l-9.7,26.6C463.7,119.5,462.6,120.2,461.5,120.2z"/>
		</g>
		<g>
			<path class="st0" d="M437.8,185.2c-0.3,0-0.6-0.1-1-0.2c-1.4-0.5-2.2-2.1-1.7-3.6l16.1-44.1c0.5-1.4,2.1-2.2,3.6-1.7
				c1.4,0.5,2.2,2.1,1.7,3.6l-16.1,44.1C440,184.5,439,185.2,437.8,185.2z"/>
		</g>
		<g>
			<path class="st0" d="M298.3,568.4c-0.3,0-0.6,0-0.9-0.2c-1.5-0.5-2.2-2.1-1.7-3.5c2.1-6.2,4.4-12.6,7-19.8
				c3.6-9.9,7.3-19.9,11-29.5c4.8-12.8,9.7-26,14.4-39c0.5-1.5,2.1-2.2,3.6-1.7c1.5,0.5,2.2,2.1,1.7,3.6
				c-4.6,13.1-9.6,26.3-14.4,39.1c-3.6,9.6-7.4,19.6-10.9,29.5c-2.6,7.1-4.8,13.5-6.9,19.7C300.6,567.7,299.5,568.4,298.3,568.4z"/>
		</g>
		<g>
			<path class="st0" d="M339.5,455.4c-0.3,0-0.6-0.1-1-0.2c-1.4-0.5-2.2-2.1-1.7-3.6l11.8-32.4c0.5-1.4,2.1-2.2,3.6-1.7
				c1.4,0.5,2.2,2.1,1.7,3.6l-11.8,32.4C341.7,454.7,340.6,455.4,339.5,455.4z"/>
		</g>
		<g>
			<path class="st0" d="M284.8,605.7c-0.3,0-0.6-0.1-0.9-0.2c-1.4-0.5-2.2-2.1-1.7-3.6c3-8.4,6.1-16.8,9.1-24.9
				c0.5-1.4,2.1-2.2,3.6-1.6c1.4,0.5,2.2,2.1,1.6,3.6c-3,8.1-6,16.5-9.1,24.9C287,605,285.9,605.7,284.8,605.7z"/>
		</g>
		<g>
			<path class="st0" d="M502,134.7c-0.5,0-1-0.1-1.4-0.4c-1.3-0.8-1.8-2.5-1-3.8l14.4-25c0.8-1.3,2.5-1.8,3.8-1
				c1.3,0.8,1.8,2.5,1,3.8l-14.4,25C503.9,134.2,503,134.7,502,134.7z"/>
		</g>
		<g>
			<path class="st0" d="M259.6,554.6c-0.5,0-1-0.1-1.4-0.4c-1.3-0.8-1.8-2.5-1-3.8l12.3-21.4c0.8-1.3,2.5-1.8,3.8-1
				c1.3,0.8,1.8,2.5,1,3.8l-12.3,21.4C261.5,554.1,260.6,554.6,259.6,554.6z"/>
		</g>
		<g>
			<path class="st0" d="M279.5,520.2c-0.5,0-1-0.1-1.4-0.4c-1.3-0.8-1.8-2.5-1-3.8l52.6-91.2c0.8-1.3,2.5-1.8,3.8-1
				c1.3,0.8,1.8,2.5,1,3.8l-52.6,91.2C281.4,519.7,280.4,520.2,279.5,520.2z"/>
		</g>
		<g>
			<path class="st0" d="M466.6,196.2c-0.5,0-1-0.1-1.4-0.4c-1.3-0.8-1.8-2.5-1-3.8l24.2-41.9c0.8-1.3,2.5-1.8,3.8-1
				c1.3,0.8,1.8,2.5,1,3.8L469,194.8C468.5,195.7,467.5,196.2,466.6,196.2z"/>
		</g>
		<g>
			<path class="st0" d="M239.5,589.5c-0.5,0-0.9-0.1-1.4-0.4c-1.3-0.8-1.8-2.5-1-3.8c4.5-7.9,9.1-15.8,13.5-23.4
				c0.8-1.3,2.5-1.8,3.8-1c1.3,0.8,1.8,2.5,1,3.8c-4.4,7.6-9,15.4-13.5,23.3C241.4,589,240.5,589.5,239.5,589.5z"/>
		</g>
		<g>
			<path class="st0" d="M565.1,126.6c-0.6,0-1.3-0.2-1.8-0.7c-1.2-1-1.3-2.7-0.3-3.9l21.7-25.9c1-1.2,2.7-1.3,3.9-0.3
				c1.2,1,1.3,2.7,0.3,3.9l-21.7,25.9C566.7,126.3,565.9,126.6,565.1,126.6z"/>
		</g>
		<g>
			<path class="st0" d="M466.6,244c-0.6,0-1.3-0.2-1.8-0.7c-1.2-1-1.3-2.7-0.3-3.9c27.2-32.4,54.3-64.7,81.5-97.1
				c1-1.2,2.7-1.3,3.9-0.3c1.2,1,1.3,2.7,0.3,3.9c-27.1,32.3-54.3,64.7-81.5,97.1C468.2,243.6,467.4,244,466.6,244z"/>
		</g>
		<g>
			<path class="st0" d="M199.5,562.3c-0.6,0-1.3-0.2-1.8-0.7c-1.2-1-1.3-2.8-0.3-3.9c3.4-4.1,6.9-8.1,10.3-12.2
				c1-1.2,2.7-1.3,3.9-0.3c1.2,1,1.3,2.7,0.3,3.9c-3.4,4.1-6.9,8.2-10.3,12.3C201.1,562,200.3,562.3,199.5,562.3z"/>
		</g>
		<g>
			<path class="st0" d="M222.1,535.3c-0.6,0-1.3-0.2-1.8-0.6c-1.2-1-1.3-2.7-0.4-3.9l3.8-4.6c10.9-13.2,22.3-26.8,33.6-40
				c1-1.2,2.8-1.3,3.9-0.3c1.2,1,1.3,2.8,0.3,3.9C250.3,503,239,516.6,228,529.8l-3.8,4.6C223.7,535,222.9,535.3,222.1,535.3z"/>
		</g>
		<g>
			<path class="st0" d="M271.6,476.4c-0.6,0-1.3-0.2-1.8-0.7c-1.2-1-1.3-2.7-0.3-3.9l32.9-39.2c1-1.2,2.7-1.3,3.9-0.3
				c1.2,1,1.3,2.7,0.3,3.9l-32.9,39.2C273.2,476.1,272.4,476.4,271.6,476.4z"/>
		</g>
		<g>
			<path class="st0" d="M169.1,598.6c-0.6,0-1.3-0.2-1.8-0.6c-1.2-1-1.3-2.7-0.4-3.9c6.8-8.2,13.7-16.4,20.3-24.2
				c1-1.2,2.8-1.3,3.9-0.3c1.2,1,1.3,2.8,0.3,3.9c-6.6,7.8-13.5,16-20.3,24.2C170.7,598.2,169.9,598.6,169.1,598.6z"/>
		</g>
		<g>
			<path class="st0" d="M585.8,175.2c-0.8,0-1.6-0.3-2.1-1c-1-1.2-0.8-2.9,0.3-3.9l24.1-20.3c1.2-1,2.9-0.8,3.9,0.3
				c1,1.2,0.8,2.9-0.3,3.9l-24.1,20.3C587.1,175,586.5,175.2,585.8,175.2z"/>
		</g>
		<g>
			<path class="st0" d="M216,485.6c-0.8,0-1.6-0.3-2.1-1c-1-1.2-0.8-2.9,0.3-3.9l45.7-38.4c1.2-1,2.9-0.8,3.9,0.3
				c1,1.2,0.8,2.9-0.3,3.9l-45.7,38.4C217.3,485.3,216.6,485.6,216,485.6z"/>
		</g>
		<g>
			<path class="st0" d="M179.7,516c-0.8,0-1.6-0.3-2.1-1c-1-1.2-0.8-2.9,0.3-3.9l22.4-18.8c1.2-1,2.9-0.8,3.9,0.3
				c1,1.2,0.8,2.9-0.3,3.9l-22.4,18.8C181,515.8,180.4,516,179.7,516z"/>
		</g>
		<g>
			<path class="st0" d="M466.6,275.2c-0.8,0-1.6-0.3-2.1-1c-1-1.2-0.8-2.9,0.3-3.9l53.7-45c1.2-1,2.9-0.8,3.9,0.3
				c1,1.2,0.8,2.9-0.3,3.9l-53.7,45C467.9,275,467.2,275.2,466.6,275.2z"/>
		</g>
		<g>
			<path class="st0" d="M534.2,218.6c-0.8,0-1.6-0.3-2.1-1c-1-1.2-0.8-2.9,0.3-3.9l32.8-27.5c1.2-1,2.9-0.8,3.9,0.3
				c1,1.2,0.8,2.9-0.3,3.9L536,217.9C535.4,218.3,534.8,218.6,534.2,218.6z"/>
		</g>
		<g>
			<path class="st0" d="M145.9,544.3c-0.8,0-1.6-0.3-2.1-1c-1-1.2-0.8-2.9,0.3-3.9c7.6-6.4,15.2-12.8,22.6-19c1.2-1,2.9-0.8,3.9,0.4
				c1,1.2,0.8,2.9-0.4,3.9c-7.4,6.1-15,12.5-22.6,18.9C147.2,544.1,146.6,544.3,145.9,544.3z"/>
		</g>
		<g>
			<path class="st0" d="M635,201.3c-1,0-1.9-0.5-2.4-1.4c-0.8-1.3-0.3-3,1-3.8l29.9-17.2c1.3-0.8,3-0.3,3.8,1c0.8,1.3,0.3,3-1,3.8
				l-29.9,17.2C635.9,201.1,635.4,201.3,635,201.3z"/>
		</g>
		<g>
			<path class="st0" d="M132.9,491.2c-1,0-1.9-0.5-2.4-1.4c-0.8-1.3-0.3-3,1-3.8l68.2-39.4c1.3-0.8,3-0.3,3.8,1c0.8,1.3,0.3,3-1,3.8
				l-68.2,39.4C133.8,491,133.3,491.2,132.9,491.2z"/>
		</g>
		<g>
			<path class="st0" d="M487,286.7c-1,0-1.9-0.5-2.4-1.4c-0.8-1.3-0.3-3,1-3.8l5.6-3.2c1.3-0.8,3-0.3,3.8,1c0.8,1.3,0.3,3-1,3.8
				l-5.6,3.2C487.9,286.5,487.5,286.7,487,286.7z"/>
		</g>
		<g>
			<path class="st0" d="M525.9,264.2c-1,0-1.9-0.5-2.4-1.4c-0.8-1.3-0.3-3,1-3.8l85.7-49.5c1.3-0.8,3-0.3,3.8,1c0.8,1.3,0.3,3-1,3.8
				l-85.7,49.5C526.8,264.1,526.4,264.2,525.9,264.2z"/>
		</g>
		<g>
			<path class="st0" d="M91.1,515.3c-1,0-1.9-0.5-2.4-1.4c-0.8-1.3-0.3-3,1-3.8c9.4-5.5,18.8-10.9,27.9-16.1c1.3-0.8,3-0.3,3.8,1
				c0.8,1.3,0.3,3-1,3.8c-9.2,5.2-18.5,10.6-27.9,16.1C92.1,515.1,91.6,515.3,91.1,515.3z"/>
		</g>
		<g>
			<path class="st0" d="M648.6,251.1c-1.1,0-2.2-0.7-2.6-1.8c-0.5-1.4,0.2-3,1.7-3.6l31.4-11.4c1.4-0.5,3,0.2,3.6,1.7
				c0.5,1.4-0.2,3-1.7,3.6L649.6,251C649.3,251.1,649,251.1,648.6,251.1z"/>
		</g>
		<g>
			<path class="st0" d="M119.8,443.6c-1.1,0-2.2-0.7-2.6-1.8c-0.5-1.4,0.2-3,1.7-3.6l73.8-26.9c1.4-0.5,3,0.2,3.6,1.7
				c0.5,1.4-0.2,3-1.7,3.6l-73.8,26.9C120.5,443.5,120.1,443.6,119.8,443.6z"/>
		</g>
		<g>
			<path class="st0" d="M541.7,290c-1.1,0-2.2-0.7-2.6-1.8c-0.5-1.4,0.2-3,1.7-3.6l82.3-30c1.4-0.5,3,0.2,3.6,1.7
				c0.5,1.4-0.2,3-1.7,3.6l-82.3,30C542.3,290,542,290,541.7,290z"/>
		</g>
		<g>
			<path class="st0" d="M75.8,459.6c-1.1,0-2.2-0.7-2.6-1.8c-0.5-1.4,0.2-3,1.6-3.6c10-3.7,19.9-7.3,29.4-10.7
				c1.5-0.5,3,0.2,3.6,1.7c0.5,1.4-0.2,3-1.7,3.6c-9.5,3.4-19.4,7-29.4,10.7C76.5,459.6,76.2,459.6,75.8,459.6z"/>
		</g>
		<g>
			<path class="st0" d="M636.8,304c-1.3,0-2.5-1-2.7-2.3c-0.3-1.5,0.7-3,2.3-3.2l30.1-5.3c1.5-0.3,3,0.7,3.2,2.3
				c0.3,1.5-0.7,3-2.3,3.2l-30.1,5.3C637.1,304,637,304,636.8,304z"/>
		</g>
		<g>
			<path class="st0" d="M558.7,317.8c-1.3,0-2.5-1-2.7-2.3c-0.3-1.5,0.7-3,2.3-3.2l54.6-9.6c1.5-0.3,3,0.7,3.2,2.3s-0.7,3-2.3,3.2
				l-54.6,9.6C559,317.7,558.8,317.8,558.7,317.8z"/>
		</g>
		<g>
			<path class="st0" d="M131.1,393.2c-1.3,0-2.5-1-2.7-2.3c-0.3-1.5,0.7-3,2.3-3.2l56.7-10c1.5-0.3,3,0.7,3.2,2.3
				c0.3,1.5-0.7,3-2.3,3.2l-56.7,10C131.4,393.2,131.3,393.2,131.1,393.2z"/>
		</g>
		<g>
			<path class="st0" d="M89,400.6c-1.3,0-2.5-0.9-2.7-2.3c-0.3-1.5,0.7-3,2.2-3.2c9.5-1.7,19-3.4,28.1-5c1.5-0.3,3,0.8,3.2,2.3
				c0.3,1.5-0.8,3-2.3,3.2c-9.1,1.6-18.6,3.2-28.1,5C89.4,400.6,89.2,400.6,89,400.6z"/>
		</g>
		<g>
			<path class="st0" d="M707.5,349.6C707.5,349.6,707.5,349.6,707.5,349.6l-34.3,0c-1.5,0-2.8-1.2-2.8-2.8c0-1.5,1.2-2.8,2.8-2.8h0
				l34.3,0c1.5,0,2.8,1.2,2.8,2.8C710.3,348.4,709,349.6,707.5,349.6z"/>
		</g>
		<g>
			<path class="st0" d="M96.4,349.6c-1.5,0-2.8-1.2-2.8-2.8c0-1.5,1.2-2.8,2.8-2.8c34.4,0,68.9,0,103.4,0c1.5,0,2.8,1.2,2.8,2.8
				c0,1.5-1.2,2.8-2.8,2.8C165.3,349.6,130.8,349.6,96.4,349.6C96.4,349.6,96.4,349.6,96.4,349.6z"/>
		</g>
		<g>
			<path class="st0" d="M646.4,349.6C646.4,349.6,646.4,349.6,646.4,349.6l-68.2,0c-1.5,0-2.8-1.2-2.8-2.8c0-1.5,1.2-2.8,2.8-2.8h0
				l68.2,0c1.5,0,2.8,1.2,2.8,2.8C649.2,348.4,647.9,349.6,646.4,349.6z"/>
		</g>
		<g>
			<path class="st0" d="M80.5,349.6C80.5,349.6,80.5,349.6,80.5,349.6c-10.5,0-21.3,0-32,0c0,0,0,0,0,0c-1.5,0-2.8-1.2-2.8-2.8
				c0-1.5,1.2-2.8,2.8-2.8c10.8,0,21.6,0,32.1,0c1.5,0,2.8,1.3,2.8,2.8C83.2,348.4,82,349.6,80.5,349.6z"/>
		</g>
		<g>
			<path class="st0" d="M676.9,402.4c-0.2,0-0.3,0-0.5,0l-31.1-5.5c-1.5-0.3-2.5-1.7-2.3-3.2c0.3-1.5,1.7-2.5,3.2-2.3l31.1,5.5
				c1.5,0.3,2.5,1.7,2.3,3.2C679.4,401.4,678.2,402.4,676.9,402.4z"/>
		</g>
		<g>
			<path class="st0" d="M257.8,328.4c-0.2,0-0.3,0-0.5,0l-30-5.3c-1.5-0.3-2.5-1.7-2.3-3.2c0.3-1.5,1.7-2.5,3.2-2.3l30,5.3
				c1.5,0.3,2.5,1.7,2.3,3.2C260.3,327.5,259.1,328.4,257.8,328.4z"/>
		</g>
		<g>
			<path class="st0" d="M211.2,320.2c-0.2,0-0.3,0-0.5,0c-15.8-3-31.9-5.7-47.5-8.4c-13.5-2.3-27.5-4.7-41.2-7.2
				c-1.5-0.3-2.5-1.7-2.2-3.2c0.3-1.5,1.7-2.5,3.2-2.2c13.6,2.5,27.6,4.9,41.1,7.2c15.6,2.7,31.7,5.4,47.6,8.4
				c1.5,0.3,2.5,1.7,2.2,3.3C213.7,319.3,212.5,320.2,211.2,320.2z"/>
		</g>
		<g>
			<path class="st0" d="M621.4,392.6c-0.2,0-0.3,0-0.5,0l-55.6-9.8c-1.5-0.3-2.5-1.7-2.3-3.2c0.3-1.5,1.7-2.5,3.2-2.3l55.6,9.8
				c1.5,0.3,2.5,1.7,2.3,3.2C623.9,391.6,622.8,392.6,621.4,392.6z"/>
		</g>
		<g>
			<path class="st0" d="M108.1,302.1c-0.2,0-0.3,0-0.5,0c-9.5-1.7-19.3-3.4-29.1-5.1c-1.5-0.3-2.5-1.7-2.3-3.2
				c0.3-1.5,1.7-2.5,3.2-2.3c9.8,1.7,19.6,3.4,29.1,5.1c1.5,0.3,2.5,1.7,2.2,3.2C110.6,301.1,109.4,302.1,108.1,302.1z"/>
		</g>
		<g>
			<path class="st0" d="M685.3,461.5c-0.3,0-0.6-0.1-1-0.2l-32-11.6c-1.4-0.5-2.2-2.1-1.7-3.6c0.5-1.4,2.1-2.2,3.6-1.7l32,11.6
				c1.4,0.5,2.2,2.1,1.7,3.6C687.5,460.8,686.4,461.5,685.3,461.5z"/>
		</g>
		<g>
			<path class="st0" d="M628.3,440.7c-0.3,0-0.6-0.1-1-0.2l-82.2-29.9c-1.4-0.5-2.2-2.1-1.7-3.6c0.5-1.4,2.1-2.2,3.6-1.7l82.2,29.9
				c1.4,0.5,2.2,2.1,1.7,3.6C630.5,440,629.4,440.7,628.3,440.7z"/>
		</g>
		<g>
			<path class="st0" d="M257.8,305.9c-0.3,0-0.6-0.1-1-0.2l-58.4-21.3c-1.4-0.5-2.2-2.1-1.7-3.6c0.5-1.4,2.1-2.2,3.6-1.7l58.4,21.3
				c1.4,0.5,2.2,2.1,1.7,3.6C260,305.2,259,305.9,257.8,305.9z"/>
		</g>
		<g>
			<path class="st0" d="M173.8,275.3c-0.3,0-0.6-0.1-1-0.2l-58.4-21.3c-1.4-0.5-2.2-2.1-1.7-3.6c0.5-1.4,2.1-2.2,3.6-1.7l58.4,21.3
				c1.4,0.5,2.2,2.1,1.7,3.6C176,274.6,174.9,275.3,173.8,275.3z"/>
		</g>
		<g>
			<path class="st0" d="M100.5,248.7c-0.3,0-0.6-0.1-1-0.2c-9.8-3.6-19.8-7.3-29.9-10.9c-1.4-0.5-2.2-2.1-1.7-3.6
				c0.5-1.4,2.1-2.2,3.6-1.7c10.1,3.6,20.2,7.3,29.9,10.9c1.4,0.5,2.2,2.1,1.6,3.6C102.7,248,101.6,248.7,100.5,248.7z"/>
		</g>
		<g>
			<path class="st0" d="M642,502.1c-0.5,0-1-0.1-1.4-0.4l-27.5-15.9c-1.3-0.8-1.8-2.5-1-3.8c0.8-1.3,2.5-1.8,3.8-1l27.5,15.9
				c1.3,0.8,1.8,2.5,1,3.8C643.9,501.6,643,502.1,642,502.1z"/>
		</g>
		<g>
			<path class="st0" d="M257.8,280.3c-0.5,0-1-0.1-1.4-0.4c-35.2-20.3-70.3-40.6-105.5-60.9c-1.3-0.8-1.8-2.5-1-3.8
				c0.8-1.3,2.5-1.8,3.8-1c35.2,20.3,70.3,40.6,105.5,60.9c1.3,0.8,1.8,2.5,1,3.8C259.7,279.8,258.8,280.3,257.8,280.3z"/>
		</g>
		<g>
			<path class="st0" d="M483.3,410.4c-0.5,0-1-0.1-1.4-0.4l-30.7-17.8c-1.3-0.8-1.8-2.5-1-3.8s2.5-1.8,3.8-1l30.7,17.8
				c1.3,0.8,1.8,2.5,1,3.8C485.2,409.9,484.2,410.4,483.3,410.4z"/>
		</g>
		<g>
			<path class="st0" d="M593,473.8c-0.5,0-1-0.1-1.4-0.4l-65-37.5c-1.3-0.8-1.8-2.5-1-3.8c0.8-1.3,2.5-1.8,3.8-1l65,37.5
				c1.3,0.8,1.8,2.5,1,3.8C594.9,473.3,594,473.8,593,473.8z"/>
		</g>
		<g>
			<path class="st0" d="M139.6,212c-0.5,0-1-0.1-1.4-0.4c-8.4-4.9-17-9.9-25.7-14.8c-1.3-0.8-1.8-2.5-1-3.8c0.8-1.3,2.5-1.8,3.8-1
				c8.7,5,17.3,10,25.7,14.8c1.3,0.8,1.8,2.5,1,3.8C141.4,211.5,140.5,212,139.6,212z"/>
		</g>
		<g>
			<path class="st0" d="M633.5,564.1c-0.6,0-1.3-0.2-1.8-0.7l-26.6-22.3c-1.2-1-1.3-2.7-0.3-3.9c1-1.2,2.7-1.3,3.9-0.3l26.6,22.3
				c1.2,1,1.3,2.7,0.3,3.9C635.1,563.7,634.3,564.1,633.5,564.1z"/>
		</g>
		<g>
			<path class="st0" d="M586.1,524.3c-0.6,0-1.3-0.2-1.8-0.7l-21.4-17.9c-25-21-50-42-75-63c-1.2-1-1.3-2.7-0.3-3.9
				c1-1.2,2.7-1.3,3.9-0.3c25,21,50,42,75,63l21.4,17.9c1.2,1,1.3,2.7,0.3,3.9C587.7,523.9,586.9,524.3,586.1,524.3z"/>
		</g>
		<g>
			<path class="st0" d="M477.3,433c-0.6,0-1.3-0.2-1.8-0.7l-42.3-35.5c-1.2-1-1.3-2.7-0.3-3.9c1-1.2,2.7-1.3,3.9-0.3l42.3,35.5
				c1.2,1,1.3,2.7,0.3,3.9C478.9,432.6,478.1,433,477.3,433z"/>
		</g>
		<g>
			<path class="st0" d="M257.8,248.8c-0.6,0-1.3-0.2-1.8-0.7l-52.6-44.1c-1.2-1-1.3-2.7-0.3-3.9c1-1.2,2.7-1.3,3.9-0.3l52.6,44.1
				c1.2,1,1.3,2.7,0.3,3.9C259.4,248.5,258.6,248.8,257.8,248.8z"/>
		</g>
		<g>
			<path class="st0" d="M190.9,192.6c-0.6,0-1.3-0.2-1.8-0.7l-31.3-26.2c-1.2-1-1.3-2.7-0.3-3.9c1-1.2,2.7-1.3,3.9-0.3l31.3,26.2
				c1.2,1,1.3,2.7,0.3,3.9C192.4,192.3,191.6,192.6,190.9,192.6z"/>
		</g>
		<g>
			<path class="st0" d="M147.3,156.1c-0.6,0-1.3-0.2-1.8-0.7c-8.1-6.9-16.5-13.9-24.8-20.8c-1.2-1-1.3-2.7-0.4-3.9
				c1-1.2,2.7-1.3,3.9-0.4c8.4,7,16.7,14,24.9,20.9c1.2,1,1.3,2.8,0.3,3.9C148.8,155.7,148,156.1,147.3,156.1z"/>
		</g>
		<g>
			<path class="st0" d="M555.9,561.8c-0.8,0-1.6-0.3-2.1-1l-18.5-22.1c-1-1.2-0.8-2.9,0.3-3.9c1.2-1,2.9-0.8,3.9,0.3l18.5,22.1
				c1,1.2,0.8,2.9-0.3,3.9C557.2,561.6,556.6,561.8,555.9,561.8z"/>
		</g>
		<g>
			<path class="st0" d="M279.4,232.2c-0.8,0-1.6-0.3-2.1-1c-17.9-21.3-35.7-42.5-53.6-63.8c-1-1.2-0.8-2.9,0.3-3.9
				c1.2-1,2.9-0.8,3.9,0.3c17.9,21.3,35.7,42.5,53.6,63.8c1,1.2,0.8,2.9-0.3,3.9C280.7,232,280,232.2,279.4,232.2z"/>
		</g>
		<g>
			<path class="st0" d="M499.6,494.6c-0.8,0-1.6-0.3-2.1-1l-79.3-94.5c-1-1.2-0.8-2.9,0.3-3.9c1.2-1,2.9-0.8,3.9,0.3l79.3,94.5
				c1,1.2,0.8,2.9-0.3,3.9C500.8,494.4,500.2,494.6,499.6,494.6z"/>
		</g>
		<g>
			<path class="st0" d="M522.9,522.4c-0.8,0-1.6-0.3-2.1-1l-12.5-14.9c-1-1.2-0.8-2.9,0.3-3.9c1.2-1,2.9-0.8,3.9,0.3l12.5,14.9
				c1,1.2,0.8,2.9-0.3,3.9C524.2,522.2,523.6,522.4,522.9,522.4z"/>
		</g>
		<g>
			<path class="st0" d="M217.3,158.1c-0.8,0-1.6-0.3-2.1-1c-5.6-6.8-11.4-13.7-17.3-20.6c-1-1.2-0.8-2.9,0.3-3.9
				c1.2-1,2.9-0.9,3.9,0.3c5.9,6.9,11.7,13.9,17.3,20.7c1,1.2,0.8,2.9-0.4,3.9C218.5,157.9,217.9,158.1,217.3,158.1z"/>
		</g>
		<g>
			<path class="st0" d="M511.6,581.1c-1,0-1.9-0.5-2.4-1.4l-13.9-24.1c-0.8-1.3-0.3-3,1-3.8c1.3-0.8,3-0.3,3.8,1l13.9,24.1
				c0.8,1.3,0.3,3-1,3.8C512.5,581,512,581.1,511.6,581.1z"/>
		</g>
		<g>
			<path class="st0" d="M486.8,538.2c-1,0-1.9-0.5-2.4-1.4l-32.4-56.2c-0.8-1.3-0.3-3,1-3.8c1.3-0.8,3-0.3,3.8,1l32.4,56.2
				c0.8,1.3,0.3,3-1,3.8C487.7,538,487.3,538.2,486.8,538.2z"/>
		</g>
		<g>
			<path class="st0" d="M443.3,462.9c-1,0-1.9-0.5-2.4-1.4l-33.4-57.9c-0.8-1.3-0.3-3,1-3.8c1.3-0.8,3-0.3,3.8,1l33.4,57.9
				c0.8,1.3,0.3,3-1,3.8C444.3,462.7,443.8,462.9,443.3,462.9z"/>
		</g>
		<g>
			<path class="st0" d="M306.2,225.3c-1,0-1.9-0.5-2.4-1.4l-42.4-73.4c-0.8-1.3-0.3-3,1-3.8c1.3-0.8,3-0.3,3.8,1l42.4,73.4
				c0.8,1.3,0.3,3-1,3.8C307.1,225.2,306.7,225.3,306.2,225.3z"/>
		</g>
		<g>
			<path class="st0" d="M257.3,140.7c-1,0-1.9-0.5-2.4-1.4c-4.2-7.4-8.6-15-13-22.5c-0.8-1.3-0.3-3,1-3.8c1.3-0.8,3-0.3,3.8,1
				c4.4,7.5,8.8,15.1,13,22.5c0.8,1.3,0.3,3-1,3.8C258.3,140.6,257.8,140.7,257.3,140.7z"/>
		</g>
		<g>
			<path class="st0" d="M486.3,647.5c-1.1,0-2.2-0.7-2.6-1.8l-11.3-31c-0.5-1.4,0.2-3,1.7-3.6c1.4-0.5,3,0.2,3.6,1.7l11.3,31
				c0.5,1.4-0.2,3-1.7,3.6C487,647.4,486.7,647.5,486.3,647.5z"/>
		</g>
		<g>
			<path class="st0" d="M438.5,516.1c-1.1,0-2.2-0.7-2.6-1.8l-39.2-107.8c-0.5-1.4,0.2-3,1.7-3.6c1.4-0.5,3,0.2,3.6,1.7l39.2,107.8
				c0.5,1.4-0.2,3-1.7,3.6C439.2,516,438.9,516.1,438.5,516.1z"/>
		</g>
		<g>
			<path class="st0" d="M452.1,553.2c-1.1,0-2.2-0.7-2.6-1.8l-8.2-22.5c-0.5-1.4,0.2-3,1.7-3.6c1.4-0.5,3,0.2,3.6,1.7l8.2,22.5
				c0.5,1.4-0.2,3-1.7,3.6C452.7,553.2,452.4,553.2,452.1,553.2z"/>
		</g>
		<g>
			<path class="st0" d="M466.2,592.2c-1.1,0-2.2-0.7-2.6-1.8l-9.1-25c-0.5-1.4,0.2-3,1.7-3.6c1.4-0.5,3,0.2,3.6,1.7l9.1,25
				c0.5,1.4-0.2,3-1.7,3.6C466.9,592.2,466.6,592.2,466.2,592.2z"/>
		</g>
		<g>
			<path class="st0" d="M330.2,218.3c-1.1,0-2.2-0.7-2.6-1.8l-26.6-73.2c-0.5-1.4,0.2-3,1.7-3.6c1.4-0.5,3,0.2,3.6,1.7l26.6,73.2
				c0.5,1.4-0.2,3-1.7,3.6C330.8,218.3,330.5,218.3,330.2,218.3z"/>
		</g>
		<g>
			<path class="st0" d="M297.8,129.3c-1.1,0-2.2-0.7-2.6-1.8l-12.4-34.1c-0.5-1.4,0.2-3,1.7-3.6c1.4-0.5,3,0.2,3.6,1.7l12.4,34.1
				c0.5,1.4-0.2,3-1.7,3.6C298.4,129.3,298.1,129.3,297.8,129.3z"/>
		</g>
		<g>
			<path class="st0" d="M280.1,80.8c-1.1,0-2.2-0.7-2.6-1.8c-3.4-9.5-6.9-19.2-10.5-28.9c-0.5-1.4,0.2-3,1.6-3.6
				c1.4-0.5,3,0.2,3.6,1.6c3.6,9.8,7.1,19.5,10.6,29c0.5,1.4-0.2,3-1.7,3.6C280.7,80.7,280.4,80.8,280.1,80.8z"/>
		</g>
		<g>
			<path class="st0" d="M433.1,662.7c-1.3,0-2.5-1-2.7-2.3l-5.7-32.6c-0.3-1.5,0.7-3,2.3-3.2c1.5-0.3,3,0.7,3.2,2.3l5.7,32.6
				c0.3,1.5-0.7,3-2.3,3.2C433.5,662.7,433.3,662.7,433.1,662.7z"/>
		</g>
		<g>
			<path class="st0" d="M353.5,211.1c-1.3,0-2.5-1-2.7-2.3l-7.8-44c-0.3-1.5,0.7-3,2.3-3.2c1.5-0.3,3,0.7,3.2,2.3l7.8,44
				c0.3,1.5-0.7,3-2.3,3.2C353.9,211.1,353.7,211.1,353.5,211.1z"/>
		</g>
		<g>
			<path class="st0" d="M343.1,151.7c-1.3,0-2.5-1-2.7-2.3L328,79.9c-0.3-1.5,0.7-3,2.3-3.2c1.5-0.3,3,0.7,3.2,2.3l12.3,69.6
				c0.3,1.5-0.7,3-2.3,3.2C343.4,151.7,343.2,151.7,343.1,151.7z"/>
		</g>
		<g>
			<path class="st0" d="M422.9,604.6c-1.3,0-2.5-0.9-2.7-2.3l-2.8-15.8c-8.1-44.7-16.4-90.8-23.8-135.7c-0.3-1.5,0.8-3,2.3-3.2
				c1.5-0.3,3,0.8,3.2,2.3c7.5,44.8,15.8,91,23.8,135.6l2.8,15.8c0.3,1.5-0.7,3-2.2,3.2C423.2,604.6,423.1,604.6,422.9,604.6z"/>
		</g>
		<g>
			<path class="st0" d="M393.6,438.5c-1.3,0-2.5-1-2.7-2.3l-5.4-30.7c-0.3-1.5,0.7-3,2.3-3.2c1.5-0.3,3,0.7,3.2,2.3l5.4,30.7
				c0.3,1.5-0.7,3-2.3,3.2C394,438.5,393.8,438.5,393.6,438.5z"/>
		</g>
		<g>
			<path class="st0" d="M328.1,67c-1.3,0-2.5-1-2.7-2.3c-1.7-10-3.5-20.2-5.4-30.4c-0.3-1.5,0.7-3,2.2-3.2c1.5-0.3,3,0.7,3.2,2.2
				c1.9,10.2,3.7,20.5,5.4,30.5c0.3,1.5-0.8,3-2.3,3.2C328.4,67,328.3,67,328.1,67z"/>
		</g>
		<g>
			<path class="st0" d="M377.9,628.1C377.9,628.1,377.9,628.1,377.9,628.1c-1.5,0-2.8-1.2-2.8-2.8l0-29c0-1.5,1.2-2.8,2.8-2.8h0
				c1.5,0,2.8,1.2,2.8,2.8l0,29C380.7,626.9,379.5,628.1,377.9,628.1z"/>
		</g>
		<g>
			<path class="st0" d="M378,204.3c-1.5,0-2.8-1.2-2.8-2.8c0-30.9,0-61.8,0-92.6c0-1.5,1.2-2.8,2.8-2.8c0,0,0,0,0,0
				c1.5,0,2.8,1.2,2.8,2.8c0,30.9,0,61.8,0,92.6C380.7,203.1,379.5,204.3,378,204.3z"/>
		</g>
		<g>
			<path class="st0" d="M378,493.5C378,493.5,378,493.5,378,493.5c-1.5,0-2.8-1.2-2.8-2.8l0-78.5c0-1.5,1.2-2.8,2.8-2.8l0,0
				c1.5,0,2.8,1.2,2.8,2.8l0,78.5C380.7,492.2,379.5,493.5,378,493.5z"/>
		</g>
		<g>
			<path class="st0" d="M378,576.5L378,576.5c-1.5,0-2.8-1.2-2.8-2.8l0-60.3c0-1.5,1.2-2.8,2.8-2.8c0,0,0,0,0,0
				c1.5,0,2.8,1.2,2.8,2.8l0,60.3C380.7,575.2,379.5,576.5,378,576.5z"/>
		</g>
		<g>
			<path class="st0" d="M377.9,98.2C377.9,98.2,377.9,98.2,377.9,98.2c-1.6,0-2.8-1.3-2.8-2.8c0-8.8,0-17.9,0-27.1
				c0-1.5,1.2-2.8,2.8-2.8c0,0,0,0,0,0c1.5,0,2.8,1.2,2.8,2.8c0,9.1,0,18.3,0,27.1C380.7,97,379.5,98.2,377.9,98.2z"/>
		</g>
	</g>
</g>
</svg>
